<svg width="20" height="17" viewBox="0 0 20 17" fill="none" xmlns="http://www.w3.org/2000/svg">
<g id="Icon//battery">
<path id="Vector" d="M15.0898 4.78125H3.03516C2.04924 4.78125 1.25 5.46061 1.25 6.29863V10.7014C1.25 11.5394 2.04924 12.2188 3.03516 12.2188H15.0898C16.0758 12.2188 16.875 11.5394 16.875 10.7014V6.29863C16.875 5.46061 16.0758 4.78125 15.0898 4.78125Z" stroke="black" stroke-width="1.125" stroke-miterlimit="10" stroke-linecap="square"/>
<path id="Vector_2" d="M9.21865 6.60498H3.50342C3.41712 6.60498 3.34717 6.66444 3.34717 6.73779V10.2616C3.34717 10.335 3.41712 10.3945 3.50342 10.3945H9.21865C9.30495 10.3945 9.3749 10.335 9.3749 10.2616V6.73779C9.3749 6.66444 9.30495 6.60498 9.21865 6.60498Z" fill="black" stroke="black" stroke-width="1.125" stroke-miterlimit="10" stroke-linecap="square"/>
<path id="Vector_3" d="M18.75 7.2605V9.73944" stroke="black" stroke-width="1.125" stroke-miterlimit="10" stroke-linecap="round"/>
</g>
</svg>
