<svg width="19" height="19" viewBox="0 0 19 19" fill="none" xmlns="http://www.w3.org/2000/svg">
<path d="M10.9067 14.8321L10.9065 14.832C9.41388 14.1317 8.09359 13.2067 6.94372 12.0564L6.94361 12.0563C5.79325 10.9064 4.86827 9.58612 4.168 8.09348L4.16793 8.09334C3.47118 6.60972 3.125 5.0922 3.125 3.5375C3.125 3.40526 3.16509 3.31524 3.24016 3.24016C3.31524 3.16509 3.40526 3.125 3.5375 3.125H6.575C6.66201 3.125 6.73467 3.15039 6.80629 3.20898C6.87145 3.2623 6.90463 3.32158 6.91627 3.40303L6.91738 3.41078L6.9188 3.41847L7.4048 6.03535C7.42354 6.17152 7.41904 6.28263 7.39955 6.37314C7.38454 6.44128 7.35063 6.50654 7.28483 6.57233L7.28482 6.57232L7.28212 6.57508L5.48212 8.41258L5.28197 8.6169L5.42608 8.86395C5.96839 9.79362 6.64487 10.6627 7.45359 11.4714C8.26236 12.2802 9.15493 12.9801 10.1308 13.5708L10.3823 13.723L10.5902 13.5152L12.3527 11.7527C12.4145 11.6908 12.505 11.6342 12.6394 11.5922C12.7676 11.5526 12.8864 11.5427 12.9997 11.5574L15.5732 12.0796C15.6701 12.1006 15.7398 12.1434 15.7965 12.2093C15.85 12.2719 15.875 12.3384 15.875 12.425V15.4625C15.875 15.5947 15.8349 15.6848 15.7598 15.7598C15.6848 15.8349 15.5947 15.875 15.4625 15.875C13.9078 15.875 12.3903 15.5288 10.9067 14.8321Z" fill="#A6A6A6" stroke="#A6A6A6" stroke-width="0.75"/>
</svg>
