<svg width="19" height="18" viewBox="0 0 19 18" fill="none" xmlns="http://www.w3.org/2000/svg">
<g id="Icon/down">
<path id="Vector" d="M9.49998 12.2313C9.39998 12.2313 9.30323 12.2126 9.20973 12.1751C9.11573 12.1376 9.03748 12.0876 8.97498 12.0251L5.52498 8.5751C5.38748 8.4376 5.31873 8.2626 5.31873 8.0501C5.31873 7.8376 5.38748 7.6626 5.52498 7.5251C5.66248 7.3876 5.83748 7.31885 6.04998 7.31885C6.26248 7.31885 6.43748 7.3876 6.57498 7.5251L9.49998 10.4501L12.425 7.5251C12.5625 7.3876 12.7375 7.31885 12.95 7.31885C13.1625 7.31885 13.3375 7.3876 13.475 7.5251C13.6125 7.6626 13.6812 7.8376 13.6812 8.0501C13.6812 8.2626 13.6125 8.4376 13.475 8.5751L10.025 12.0251C9.94998 12.1001 9.86873 12.1531 9.78123 12.1841C9.69373 12.2156 9.59998 12.2313 9.49998 12.2313Z" fill="white"/>
</g>
</svg>
