<svg width="19" height="19" viewBox="0 0 19 19" fill="none" xmlns="http://www.w3.org/2000/svg">
<path d="M9.31044 10.1534L9.31046 10.1534L9.3058 10.1507C9.19361 10.0856 9.125 9.96443 9.125 9.83V6.29C9.125 6.19711 9.19711 6.125 9.29 6.125H9.335C9.42789 6.125 9.5 6.19711 9.5 6.29V9.695V9.90836L9.68341 10.0174L12.5859 11.7424L12.5859 11.7424L12.5909 11.7452C12.6092 11.7558 12.6252 11.7699 12.638 11.7867C12.6507 11.8036 12.66 11.8228 12.6652 11.8433C12.6703 11.8638 12.6713 11.8851 12.6681 11.906C12.6649 11.9269 12.6574 11.9469 12.6463 11.9649L12.6462 11.9648L12.6418 11.9724C12.6036 12.0373 12.5089 12.0707 12.4212 12.0199C12.4209 12.0197 12.4205 12.0195 12.4201 12.0193L9.31044 10.1534ZM2.375 9.5C2.375 5.56662 5.5601 2.375 9.4925 2.375C13.4331 2.375 16.625 5.56735 16.625 9.5C16.625 13.4326 13.4331 16.625 9.4925 16.625C5.5601 16.625 2.375 13.4334 2.375 9.5ZM3.125 9.5C3.125 13.0221 5.97789 15.875 9.5 15.875C13.0221 15.875 15.875 13.0221 15.875 9.5C15.875 5.97789 13.0221 3.125 9.5 3.125C5.97789 3.125 3.125 5.97789 3.125 9.5Z" fill="white" stroke="#A6A6A6" stroke-width="0.75"/>
</svg>
