<svg width="13" height="13" viewBox="0 0 13 13" fill="none" xmlns="http://www.w3.org/2000/svg">
<path d="M10.0391 3.5H4.83594C4.09812 3.5 3.5 4.09812 3.5 4.83594V10.0391C3.5 10.7769 4.09812 11.375 4.83594 11.375H10.0391C10.7769 11.375 11.375 10.7769 11.375 10.0391V4.83594C11.375 4.09812 10.7769 3.5 10.0391 3.5Z" fill="white" stroke="#8DB0F9" stroke-width="1.125" stroke-linejoin="round"/>
<path d="M9.48828 3.5L9.5 2.9375C9.49901 2.58971 9.36041 2.25644 9.11448 2.01052C8.86856 1.76459 8.53529 1.62599 8.1875 1.625H3.125C2.72754 1.62617 2.34669 1.78459 2.06564 2.06564C1.78459 2.34669 1.62617 2.72754 1.625 3.125V8.1875C1.62599 8.53529 1.76459 8.86856 2.01052 9.11448C2.25644 9.36041 2.58971 9.49901 2.9375 9.5H3.5" stroke="#8DB0F9" stroke-width="1.125" stroke-linecap="round" stroke-linejoin="round"/>
</svg>
