<svg width="33" height="32" viewBox="0 0 33 32" fill="none" xmlns="http://www.w3.org/2000/svg">
<g id="Icon/left">
<path id="Vector" d="M18.2333 23.0666L12.0999 16.9333C11.9666 16.8 11.8724 16.6555 11.8173 16.5C11.7613 16.3444 11.7333 16.1778 11.7333 16C11.7333 15.8222 11.7613 15.6555 11.8173 15.5C11.8724 15.3444 11.9666 15.2 12.0999 15.0666L18.2333 8.93332C18.4777 8.68887 18.7888 8.56665 19.1666 8.56665C19.5444 8.56665 19.8555 8.68887 20.0999 8.93332C20.3444 9.17776 20.4666 9.48887 20.4666 9.86665C20.4666 10.2444 20.3444 10.5555 20.0999 10.8L14.8999 16L20.0999 21.2C20.3444 21.4444 20.4666 21.7555 20.4666 22.1333C20.4666 22.5111 20.3444 22.8222 20.0999 23.0666C19.8555 23.3111 19.5444 23.4333 19.1666 23.4333C18.7888 23.4333 18.4777 23.3111 18.2333 23.0666Z" fill="black"/>
</g>
</svg>
