<svg width="17" height="16" viewBox="0 0 17 16" fill="none" xmlns="http://www.w3.org/2000/svg">
<g id="Icon/ring">
<path id="Vector" d="M10.4999 11.3334V12.0001C10.4999 12.5305 10.2892 13.0392 9.91413 13.4143C9.53906 13.7894 9.03035 14.0001 8.49992 14.0001C7.96949 14.0001 7.46078 13.7894 7.08571 13.4143C6.71063 13.0392 6.49992 12.5305 6.49992 12.0001V11.3334M10.4999 11.3334H6.49992M10.4999 11.3334H12.8933C13.1486 11.3334 13.2766 11.3334 13.3799 11.2988C13.4771 11.2659 13.5654 11.211 13.6379 11.1383C13.7104 11.0657 13.7652 10.9774 13.7979 10.8801C13.8333 10.7761 13.8333 10.6481 13.8333 10.3908C13.8333 10.2781 13.8333 10.2221 13.8239 10.1681C13.8075 10.0671 13.768 9.97133 13.7086 9.88811C13.6766 9.84344 13.6366 9.80344 13.5573 9.72411L13.2973 9.46411C13.2558 9.4226 13.2229 9.37333 13.2005 9.31911C13.1781 9.26489 13.1665 9.20678 13.1666 9.14811V6.66677C13.1666 6.05394 13.0459 5.4471 12.8114 4.88092C12.5768 4.31473 12.2331 3.80028 11.7998 3.36694C11.3664 2.9336 10.852 2.58986 10.2858 2.35534C9.71959 2.12081 9.11276 2.00011 8.49992 2.00011C7.88709 2.00011 7.28025 2.12081 6.71406 2.35534C6.14788 2.58986 5.63343 2.9336 5.20009 3.36694C4.76675 3.80028 4.423 4.31473 4.18848 4.88092C3.95396 5.4471 3.83325 6.05394 3.83325 6.66677V9.14811C3.8333 9.20678 3.82178 9.26489 3.79936 9.31911C3.77694 9.37333 3.74405 9.4226 3.70259 9.46411L3.44259 9.72411C3.36259 9.80411 3.32325 9.84344 3.29192 9.88744C3.23194 9.97076 3.19201 10.0668 3.17525 10.1681C3.16659 10.2214 3.16659 10.2781 3.16659 10.3908C3.16659 10.6481 3.16659 10.7761 3.20125 10.8801C3.23414 10.9775 3.28911 11.066 3.36185 11.1386C3.43459 11.2112 3.52315 11.266 3.62059 11.2988C3.72392 11.3334 3.85125 11.3334 4.10659 11.3334H6.49992M12.5126 1.34277C13.4319 2.03571 14.156 2.95487 14.6146 4.01077M4.48792 1.34277C3.56841 2.03562 2.84401 2.9548 2.38525 4.01077" stroke="white" stroke-width="1.5" stroke-linecap="round" stroke-linejoin="round"/>
</g>
</svg>
