<svg width="18" height="19" viewBox="0 0 18 19" fill="none" xmlns="http://www.w3.org/2000/svg">
<g id="Icon/mission">
<path id="Vector" d="M11.25 7.99991L8.25001 10.9999L6.75001 9.49991M9.93451 3.09416L10.8503 3.87416C11.0813 4.07066 11.3678 4.18916 11.6693 4.21391L12.8693 4.30991C13.2103 4.33714 13.5306 4.48494 13.7726 4.72682C14.0146 4.9687 14.1626 5.28885 14.19 5.62991L14.2853 6.82991C14.31 7.13216 14.4293 7.41941 14.6258 7.64966L15.4058 8.56466C15.6281 8.82528 15.7502 9.15661 15.7502 9.49916C15.7502 9.84171 15.6281 10.173 15.4058 10.4337L14.6258 11.3494C14.4293 11.5804 14.31 11.8669 14.286 12.1692L14.19 13.3692C14.1628 13.7102 14.015 14.0305 13.7731 14.2725C13.5312 14.5145 13.2111 14.6625 12.87 14.6899L11.67 14.7859C11.3679 14.8098 11.081 14.9285 10.8503 15.1249L9.93451 15.9049C9.67383 16.1271 9.34252 16.2491 9.00001 16.2491C8.6575 16.2491 8.3262 16.1271 8.06551 15.9049L7.15051 15.1249C6.91954 14.9283 6.63239 14.8097 6.33001 14.7859L5.13001 14.6899C4.78883 14.6625 4.46859 14.5144 4.22669 14.2722C3.9848 14.03 3.83708 13.7096 3.81001 13.3684L3.71401 12.1692C3.68972 11.8672 3.57084 11.5806 3.37426 11.3502L2.59426 10.4337C2.37236 10.1731 2.25049 9.84212 2.25049 9.49991C2.25049 9.1577 2.37236 8.82667 2.59426 8.56616L3.37426 7.64966C3.57151 7.41866 3.68926 7.13216 3.71326 6.82991L3.80926 5.63066C3.83686 5.28933 3.98508 4.96898 4.22736 4.72698C4.46964 4.48497 4.79016 4.33712 5.13151 4.30991L6.33001 4.21466C6.63221 4.19053 6.91909 4.07163 7.14976 3.87491L8.06551 3.09491C8.3262 2.87275 8.6575 2.75073 9.00001 2.75073C9.34252 2.75073 9.67383 2.872 9.93451 3.09416Z" stroke="white" stroke-width="1.5" stroke-linecap="round" stroke-linejoin="round"/>
</g>
</svg>
