<svg width="16" height="15" viewBox="0 0 16 15" fill="none" xmlns="http://www.w3.org/2000/svg">
<g id="Group">
<path id="Vector" d="M8 4.5V14.25M1.25 5.25C1.25 5.05109 1.32902 4.86032 1.46967 4.71967C1.61032 4.57902 1.80109 4.5 2 4.5H14C14.1989 4.5 14.3897 4.57902 14.5303 4.71967C14.671 4.86032 14.75 5.05109 14.75 5.25V6.75C14.75 6.94891 14.671 7.13968 14.5303 7.28033C14.3897 7.42098 14.1989 7.5 14 7.5H2C1.80109 7.5 1.61032 7.42098 1.46967 7.28033C1.32902 7.13968 1.25 6.94891 1.25 6.75V5.25Z" stroke="white" stroke-width="1.5" stroke-linecap="round" stroke-linejoin="round"/>
<path id="Vector_2" d="M13.25 7.50008V12.7501C13.25 13.1479 13.092 13.5294 12.8107 13.8107C12.5294 14.092 12.1478 14.2501 11.75 14.2501H4.25C3.85218 14.2501 3.47064 14.092 3.18934 13.8107C2.90804 13.5294 2.75 13.1479 2.75 12.7501V7.50008M4.625 4.50008C4.12772 4.50008 3.65081 4.30254 3.29917 3.95091C2.94754 3.59928 2.75 3.12236 2.75 2.62508C2.75 2.1278 2.94754 1.65089 3.29917 1.29926C3.65081 0.947628 4.12772 0.750084 4.625 0.750084C5.34851 0.737478 6.05752 1.08853 6.65955 1.75745C7.26159 2.42638 7.72871 3.38214 8 4.50008C8.27129 3.38214 8.73841 2.42638 9.34045 1.75745C9.94248 1.08853 10.6515 0.737478 11.375 0.750084C11.8723 0.750084 12.3492 0.947628 12.7008 1.29926C13.0525 1.65089 13.25 2.1278 13.25 2.62508C13.25 3.12236 13.0525 3.59928 12.7008 3.95091C12.3492 4.30254 11.8723 4.50008 11.375 4.50008" stroke="white" stroke-width="1.5" stroke-linecap="round" stroke-linejoin="round"/>
</g>
</svg>
