<svg width="13" height="10" viewBox="0 0 13 10" fill="none" xmlns="http://www.w3.org/2000/svg">
<path d="M7.475 8.95586C7.325 8.80586 7.253 8.62461 7.259 8.41211C7.265 8.19961 7.34325 8.01836 7.49375 7.86836L9.6125 5.74961H1.25C1.0375 5.74961 0.859253 5.67761 0.715253 5.53361C0.571253 5.38961 0.499503 5.21161 0.500003 4.99961C0.500003 4.78711 0.572003 4.60886 0.716003 4.46486C0.860003 4.32086 1.038 4.24911 1.25 4.24961H9.6125L7.475 2.11211C7.325 1.96211 7.25 1.78386 7.25 1.57736C7.25 1.37086 7.325 1.19286 7.475 1.04336C7.625 0.893359 7.80325 0.818359 8.00975 0.818359C8.21625 0.818359 8.39425 0.893359 8.54375 1.04336L11.975 4.47461C12.05 4.54961 12.1033 4.63086 12.1348 4.71836C12.1663 4.80586 12.1818 4.89961 12.1813 4.99961C12.1813 5.09961 12.1655 5.19336 12.134 5.28086C12.1025 5.36836 12.0495 5.44961 11.975 5.52461L8.525 8.97461C8.3875 9.11211 8.21575 9.18086 8.00975 9.18086C7.80375 9.18086 7.6255 9.10586 7.475 8.95586Z" fill="#6B6B6B"/>
</svg>
