<svg width="19" height="19" viewBox="0 0 19 19" fill="none" xmlns="http://www.w3.org/2000/svg">
<g id="Icon/more">
<path id="Vector" d="M8.75 14C8.75 14.1989 8.82902 14.3897 8.96967 14.5303C9.11032 14.671 9.30109 14.75 9.5 14.75C9.69891 14.75 9.88968 14.671 10.0303 14.5303C10.171 14.3897 10.25 14.1989 10.25 14C10.25 13.8011 10.171 13.6103 10.0303 13.4697C9.88968 13.329 9.69891 13.25 9.5 13.25C9.30109 13.25 9.11032 13.329 8.96967 13.4697C8.82902 13.6103 8.75 13.8011 8.75 14ZM8.75 9.5C8.75 9.69891 8.82902 9.88968 8.96967 10.0303C9.11032 10.171 9.30109 10.25 9.5 10.25C9.69891 10.25 9.88968 10.171 10.0303 10.0303C10.171 9.88968 10.25 9.69891 10.25 9.5C10.25 9.30109 10.171 9.11032 10.0303 8.96967C9.88968 8.82902 9.69891 8.75 9.5 8.75C9.30109 8.75 9.11032 8.82902 8.96967 8.96967C8.82902 9.11032 8.75 9.30109 8.75 9.5ZM8.75 5C8.75 5.19891 8.82902 5.38968 8.96967 5.53033C9.11032 5.67098 9.30109 5.75 9.5 5.75C9.69891 5.75 9.88968 5.67098 10.0303 5.53033C10.171 5.38968 10.25 5.19891 10.25 5C10.25 4.80109 10.171 4.61032 10.0303 4.46967C9.88968 4.32902 9.69891 4.25 9.5 4.25C9.30109 4.25 9.11032 4.32902 8.96967 4.46967C8.82902 4.61032 8.75 4.80109 8.75 5Z" stroke="#A6A6A6" stroke-width="1.5" stroke-linecap="round" stroke-linejoin="round"/>
</g>
</svg>
