<svg width="13" height="13" viewBox="0 0 13 13" fill="none" xmlns="http://www.w3.org/2000/svg">
<g id="Icon/location">
<path id="Vector" d="M2 6.5H4.5M2 6.5C2 7.69347 2.47411 8.83807 3.31802 9.68198C4.16193 10.5259 5.30653 11 6.5 11M2 6.5C2 5.30653 2.47411 4.16193 3.31802 3.31802C4.16193 2.47411 5.30653 2 6.5 2M4.5 6.5H8.5M4.5 6.5C4.5 8.985 5.395 11 6.5 11M4.5 6.5C4.5 4.015 5.395 2 6.5 2M6.5 11C7.605 11 8.5 8.985 8.5 6.5M6.5 11C7.69347 11 8.83807 10.5259 9.68198 9.68198C10.5259 8.83807 11 7.69347 11 6.5M6.5 2C7.605 2 8.5 4.015 8.5 6.5M6.5 2C7.69347 2 8.83807 2.47411 9.68198 3.31802C10.5259 4.16193 11 5.30653 11 6.5M8.5 6.5H11" stroke="#6B6B6B" stroke-width="1.5" stroke-linecap="round" stroke-linejoin="round"/>
</g>
</svg>
