<svg width="14" height="14" viewBox="0 0 14 14" fill="none" xmlns="http://www.w3.org/2000/svg">
<g id="Icon/position">
<path id="Vector" d="M12.2026 2.70371L8.72998 12.0837C8.51064 12.6764 7.87889 12.9809 7.31948 12.7633C7.18095 12.7084 7.05527 12.6255 6.95036 12.5196C6.84545 12.4138 6.76358 12.2875 6.70989 12.1485L5.60914 9.36596C5.40229 8.83183 4.99222 8.40142 4.46873 8.16896L1.81923 7.01337C1.26798 6.77246 1.01714 6.10454 1.25806 5.52121C1.31505 5.38035 1.3994 5.2522 1.50623 5.14416C1.61307 5.03612 1.74027 4.95035 1.88048 4.89179L10.8148 1.24596C11.3789 1.01554 12.0048 1.30487 12.2119 1.89287C12.3035 2.15304 12.2994 2.44121 12.2026 2.70371Z" fill="black"/>
</g>
</svg>
