<svg width="15" height="15" viewBox="0 0 15 15" fill="none" xmlns="http://www.w3.org/2000/svg">
<g id="Icon/down">
<path id="Vector" d="M7.49989 10.0132C7.42211 10.0132 7.34686 9.99863 7.27414 9.96947C7.20102 9.9403 7.14016 9.90141 7.09155 9.8528L4.40822 7.16947C4.30127 7.06252 4.2478 6.92641 4.2478 6.76113C4.2478 6.59585 4.30127 6.45974 4.40822 6.3528C4.51516 6.24585 4.65127 6.19238 4.81655 6.19238C4.98183 6.19238 5.11794 6.24585 5.22489 6.3528L7.49989 8.6278L9.77489 6.3528C9.88183 6.24585 10.0179 6.19238 10.1832 6.19238C10.3485 6.19238 10.4846 6.24585 10.5916 6.3528C10.6985 6.45974 10.752 6.59585 10.752 6.76113C10.752 6.92641 10.6985 7.06252 10.5916 7.16947L7.90822 9.8528C7.84989 9.91113 7.78669 9.95235 7.71864 9.97647C7.65058 10.001 7.57766 10.0132 7.49989 10.0132Z" fill="#6B6B6B"/>
</g>
</svg>
