<svg width="320" height="220" viewBox="0 0 320 220" fill="none" xmlns="http://www.w3.org/2000/svg">
<rect width="320" height="220" fill="#171F31"/>
<path fill-rule="evenodd" clip-rule="evenodd" d="M168 51C179.598 51 189 60.402 189 72C189 73.4157 188.86 74.7986 188.593 76.1358C186.739 90.1032 168.11 106 168.11 106C168.11 106 152.257 92.4717 148.345 79.4096C147.476 77.1054 147 74.6083 147 72C147 60.402 156.402 51 168 51Z" fill="white"/>
<path d="M176 72C176 67.5817 172.418 64 168 64C163.582 64 160 67.5817 160 72C160 76.4183 163.582 80 168 80C172.418 80 176 76.4183 176 72Z" fill="#171F31"/>
<path d="M79.2575 156V129.206H84.8089V151.411H96.3556V156H79.2575ZM99.8344 156V135.904H105.312V156H99.8344ZM99.5754 130.501C99.5754 128.947 100.926 127.707 102.573 127.688C104.201 127.707 105.552 128.947 105.534 130.501C105.552 132.018 104.201 133.277 102.573 133.277C100.926 133.277 99.5754 132.018 99.5754 130.501ZM118.598 156.407C112.528 156.389 108.735 152.225 108.754 146.008C108.735 139.809 112.528 135.645 118.598 135.645C124.686 135.645 128.461 139.809 128.479 146.008C128.461 152.225 124.686 156.389 118.598 156.407ZM114.305 146.008C114.305 149.523 115.767 152.133 118.635 152.151C121.429 152.133 122.909 149.523 122.891 146.008C122.909 142.473 121.429 139.827 118.635 139.827C115.767 139.827 114.305 142.473 114.305 146.008ZM137.398 144.379V156H131.921V135.904H137.139V139.42H137.361C138.268 137.107 140.415 135.645 143.394 135.645C147.594 135.645 150.333 138.513 150.314 143.195V156H144.874V144.157C144.856 141.678 143.523 140.197 141.247 140.197C138.971 140.197 137.398 141.733 137.398 144.379ZM163.416 156V129.206H173.926C180.014 129.206 183.511 132.962 183.511 138.236C183.511 143.584 179.958 147.266 173.778 147.266H168.967V156H163.416ZM168.967 142.788H172.89C176.184 142.788 177.793 140.937 177.775 138.236C177.793 135.571 176.184 133.776 172.89 133.758H168.967V142.788ZM192.393 129.206V156H186.916V129.206H192.393ZM195.687 150.375C195.706 145.897 199.296 144.435 203.163 144.194C204.606 144.102 207.308 143.972 208.159 143.935V142.307C208.141 140.623 206.993 139.661 204.939 139.642C203.07 139.661 201.905 140.493 201.609 141.863H196.39C196.723 138.384 199.758 135.645 205.087 135.645C209.473 135.645 213.618 137.607 213.599 142.455V156H208.418V153.224H208.27C207.289 155.075 205.365 156.389 202.386 156.37C198.537 156.389 195.706 154.353 195.687 150.375ZM200.942 150.227C200.942 151.762 202.182 152.577 203.94 152.595C206.438 152.577 208.178 150.948 208.159 148.82V147.358C207.326 147.395 204.976 147.525 204.051 147.599C202.145 147.766 200.942 148.672 200.942 150.227ZM226.812 156.407C220.65 156.389 216.949 152.133 216.967 146.008C216.949 139.864 220.724 135.645 226.812 135.645C231.993 135.645 235.509 138.661 235.731 143.269H230.586C230.253 141.289 228.958 139.92 226.886 139.901C224.258 139.92 222.519 142.122 222.519 145.934C222.519 149.82 224.221 152.04 226.886 152.04C228.81 152.04 230.235 150.837 230.586 148.709H235.731C235.49 153.261 232.141 156.389 226.812 156.407ZM248.24 156.407C242.078 156.389 238.303 152.41 238.321 146.045C238.303 139.846 242.133 135.645 248.018 135.645C253.291 135.645 257.455 138.976 257.455 145.823V147.377H243.725C243.725 150.412 245.52 152.281 248.351 152.299C250.22 152.281 251.552 151.466 252.089 150.264H257.307C256.53 153.983 253.199 156.389 248.24 156.407ZM243.725 143.935H252.274C252.255 141.493 250.571 139.735 248.129 139.753C245.612 139.735 243.836 141.622 243.725 143.935Z" fill="white"/>
</svg>
