<svg xmlns="http://www.w3.org/2000/svg" version="1.1" width="20px" height="20px" viewBox="0 0 24 24">
  <defs>
    <filter id="drop-shadow" x="-50%" y="-50%" width="200%" height="200%">
      <feDropShadow dx="1" dy="1" stdDeviation="1" flood-color="#888888" />
    </filter>
  </defs>
  <circle cx="12" cy="12" r="10" fill="#ff5e1a" stroke="white" stroke-width="1"  filter="url(#drop-shadow)"/>
  <g transform="translate(4.8, 4.9) scale(0.6)" fill="white">
    <path d="M0 0h24v24H0V0z" fill="none"/><path d="M19 3H5c-1.1 0-1.99.9-1.99 2L3 19c0 1.1.9 2 2 2h14c1.1 0 2-.9 2-2V5c0-1.1-.9-2-2-2zm0 16H5V5h14v14zm-8.5-2h3v-3.5H17v-3h-3.5V7h-3v3.5H7v3h3.5z"/>
  </g>
</svg>