<svg xmlns="http://www.w3.org/2000/svg" version="1.1" width="20px" height="20px" viewBox="0 0 24 24">
  <defs>
    <filter id="drop-shadow" x="-50%" y="-50%" width="200%" height="200%">
      <feDropShadow dx="1" dy="1" stdDeviation="1" flood-color="#888888" />
    </filter>
  </defs>
  <circle cx="12" cy="12" r="10" fill="#FE8C52" stroke="white" stroke-width="1"  filter="url(#drop-shadow)"/>
  <g transform="translate(5, 5) scale(0.6)" fill="white">
    <path d="M0 0h24v24H0V0z" fill="none"/><path d="M20 3H4v10c0 2.21 1.79 4 4 4h6c2.21 0 4-1.79 4-4v-3h2c1.11 0 2-.9 2-2V5c0-1.11-.89-2-2-2zm0 5h-2V5h2v3zM4 19h16v2H4z"/>
  </g>
</svg>