<svg xmlns="http://www.w3.org/2000/svg" version="1.1" width="20px" height="20px" viewBox="0 0 24 24">
  <defs>
    <filter id="drop-shadow" x="-50%" y="-50%" width="200%" height="200%">
      <feDropShadow dx="1" dy="1" stdDeviation="1" flood-color="#888888" />
    </filter>
  </defs>
  <circle cx="12" cy="12" r="10" fill="#ff5e1a" stroke="white" stroke-width="1"  filter="url(#drop-shadow)"/>
  <g transform="translate(4.2, 3) scale(0.8)" fill="white">
    <path d="M2,17h11V5.5H2V17z M4.5,10h2V8h2v2h2v2h-2v2h-2v-2h-2V10z"/>
    <path d="M16.5,5.5c-1.38,0-2.5,1.46-2.5,3.25c0,1.45,0.74,2.67,1.75,3.08V17h1.5v-5.17C18.26,11.42,19,10.2,19,8.75 C19,6.96,17.88,5.5,16.5,5.5z"/>
  </g>
</svg>